<svg width="400" height="300" xmlns="http://www.w3.org/2000/svg" xmlns:xlink="http://www.w3.org/1999/xlink" overflow="hidden"><defs><clipPath id="clip0"><rect x="0" y="0" width="400" height="300"/></clipPath><clipPath id="clip1"><rect x="103" y="29" width="193" height="242"/></clipPath><clipPath id="clip2"><rect x="103" y="29" width="193" height="242"/></clipPath><clipPath id="clip3"><rect x="103" y="29" width="193" height="242"/></clipPath></defs><g clip-path="url(#clip0)"><rect x="0" y="0" width="400" height="300" fill="#FFFFFF"/><g clip-path="url(#clip1)"><g clip-path="url(#clip2)"><g clip-path="url(#clip3)"><path d="M153.158 204.076C146.853 204.212 140.725 201.99 135.974 197.843 131.105 193.648 127.655 188.047 126.099 181.811 124.911 176.462 124.576 170.96 125.107 165.507 125.5 160.971 127.737 152.076 129.115 147.74 130.194 144.347 131.026 140.58 128.774 137.375 127.127 135.002 124.349 133.676 121.469 133.887 118.409 134.199 115.55 135.552 113.369 137.72 111.366 139.93 109.876 142.554 109.003 145.406 103.846 161.632 104.169 185.794 113.621 199.962 122.273 212.938 135.933 220.614 149.636 228.055L154.487 230.643" fill="#C6C6C6"/><path d="M153.158 201.68C149.527 201.72 145.932 200.947 142.64 199.415 139.375 197.759 136.49 195.441 134.169 192.61 128.903 186.342 127.226 178.337 127.282 170.33 127.325 163.551 128.918 156.973 130.836 150.342 131.876 146.749 133.199 143.109 132.266 139.327 131.227 135.381 127.997 132.394 123.982 131.667 119.97 131.157 115.929 132.357 112.845 134.973 109.634 137.529 107.676 141.545 106.501 145.392 104.483 152.23 103.406 159.311 103.301 166.44 103.065 173.84 103.932 181.234 105.873 188.379 107.86 195.379 111.406 201.839 116.245 207.274 125.753 218.098 138.847 225.012 151.378 231.7L153.274 232.711C155.994 234.163 158.417 230.029 155.693 228.575 144.776 222.748 133.446 217.02 124.252 208.597 119.124 203.896 114.623 198.347 112.066 191.818 109.658 185.391 108.331 178.61 108.141 171.75 107.825 164.873 108.418 157.984 109.904 151.262 111.296 145.103 113.853 137.036 121.303 136.295 124.486 135.905 127.383 138.169 127.774 141.352 127.78 141.404 127.786 141.456 127.791 141.508 128.017 144.637 126.556 147.775 125.745 150.747 123.907 157.457 122.426 164.244 122.488 171.231 122.559 179.308 124.316 187.354 129.175 193.952 133.6 199.959 139.883 204.596 147.328 205.929 149.253 206.271 151.203 206.453 153.159 206.473 156.243 206.51 156.245 201.719 153.159 201.682Z" fill="#211715"/><path d="M291.821 199.705C288.903 185.212 283.593 173.323 276.711 158.911 272.243 149.556 269.88 143.273 265.586 133.245 263.321 127.955 261.862 121.627 256.913 117.226 257.947 116.685 258.939 116.07 259.883 115.385 263.201 112.883 266.223 110.012 268.891 106.826 271.77 103.533 273.754 99.5552 274.654 95.2746 274.665 95.2526 274.665 95.2307 274.676 95.2087 277.182 82.9041 275.24 70.1092 269.194 59.103 269.839 51.9299 270.382 44.7492 270.824 37.5608 271.002 36.2664 270.859 34.9481 270.408 33.7221 269.797 32.3828 268.457 31.5267 266.985 31.5352 265.345 31.4502 263.701 31.4756 262.065 31.6111 254.496 32.2696 247.067 34.047 240.019 36.8851 237.099 35.5219 233.979 34.6324 230.779 34.2501 227.558 33.7933 224.308 33.5764 221.055 33.6013 217.094 33.5536 213.134 33.7693 209.202 34.2471 205.976 34.4951 202.833 35.3924 199.962 36.8851 192.914 34.0481 185.485 32.2708 177.916 31.6111 176.279 31.4758 174.635 31.4504 172.995 31.5352 171.52 31.5264 170.177 32.382 169.562 33.7221 169.113 34.9488 168.973 36.2671 169.153 37.5608 169.581 44.6807 170.117 51.7922 170.761 58.8954L170.779 59.103C164.734 70.1104 162.792 82.9065 165.301 95.2117 165.312 95.2337 165.312 95.2556 165.323 95.2776 166.223 99.5571 168.207 103.534 171.086 106.826 173.753 110.012 176.776 112.883 180.094 115.385 181.17 116.166 182.31 116.857 183.501 117.451 178.741 121.842 177.293 128.043 175.065 133.245 170.773 143.273 168.408 149.556 163.94 158.911 162.412 162.111 160.962 165.187 159.598 168.194 154.819 178.73 151.101 188.429 148.83 199.704 146.783 209.872 146.549 223.68 149.903 233.494 153.634 244.415 162.823 254.101 174.871 254.02L183.288 254.02C182.45 255.391 181.969 256.951 181.89 258.556 181.99 262.802 184.219 266.041 187.622 267.197 191.216 268.418 199.047 268.832 202.767 268.402 205.545 267.807 208.107 266.464 210.177 264.518 212.044 262.401 212.713 259.903 213.226 256.953 213.376 255.983 213.408 254.998 213.321 254.02L228.042 254.02C227.954 254.998 227.986 255.983 228.137 256.953 228.65 259.903 229.318 262.401 231.185 264.518 233.255 266.464 235.817 267.807 238.595 268.402 242.315 268.832 250.143 268.418 253.74 267.197 257.143 266.041 259.368 262.806 259.473 258.556 259.393 256.951 258.912 255.392 258.075 254.02L265.78 254.02C277.827 254.101 287.016 244.415 290.748 233.494 294.099 223.681 293.865 209.873 291.821 199.705Z" fill="#C6C6C6"/><path d="M251.712 121.839C256.39 120.454 260.71 118.068 264.373 114.847 268.236 111.669 271.524 107.851 274.092 103.559 276.37 99.1064 277.687 94.2245 277.956 89.23 278.375 84.2035 278.098 79.1433 277.133 74.1925 276.02 68.4914 274.04 62.9947 271.26 57.8943L271.588 59.103C271.987 54.6195 272.351 50.1327 272.68 45.6425 272.845 43.3582 272.999 41.0725 273.142 38.7855 273.278 36.6006 273.457 34.3569 272.391 32.3537 270.375 28.5608 265.718 28.9501 262.063 29.2156 258.281 29.5147 254.527 30.1023 250.835 30.9733 246.721 31.8973 242.696 33.1825 238.808 34.814L241.225 34.814C234.598 31.7498 227.28 31.1958 220.057 31.2038 212.877 31.2158 205.266 31.5272 198.748 34.814L201.167 34.814C194.172 31.8876 186.774 30.0381 179.224 29.3284 175.669 28.98 170.771 28.2534 168.236 31.3955 167.009 33.1194 166.477 35.2434 166.749 37.3422 166.871 39.6508 167.034 41.9575 167.195 44.2621 167.54 49.2137 167.961 54.1584 168.387 59.103L168.714 57.8943C163.77 66.9542 161.412 77.1987 161.897 87.5083 162.028 92.5215 163.123 97.4626 165.122 102.062 167.194 106.48 170.639 110.215 174.158 113.54 178.129 117.394 182.966 120.241 188.264 121.84 191.225 122.728 192.489 118.105 189.538 117.22 185.234 115.937 181.289 113.667 178.017 110.591 174.579 107.43 171.265 103.903 169.259 99.6443 167.324 95.5341 166.764 90.7072 166.634 86.2147 166.494 81.4534 167.028 76.6961 168.221 72.0845 168.832 69.6954 169.611 67.3524 170.551 65.0727 170.975 64.0537 171.443 63.0506 171.935 62.0624 172.502 60.9256 173.193 59.9524 173.133 58.6479 172.885 53.1094 172.198 47.5689 171.835 42.0293 171.743 40.6233 171.654 39.2163 171.568 37.8083 171.511 36.8312 171.268 35.4997 171.798 34.6144 172.114 34.1442 172.657 33.8779 173.222 33.9157 174.499 33.8302 175.78 33.8415 177.055 33.9496 181.61 34.2633 186.121 35.0323 190.522 36.2453 192.709 36.8242 194.877 37.4839 197.001 38.2675 197.927 38.7611 198.927 39.1032 199.962 39.2805 201.067 39.2805 202.186 38.4142 203.207 38.0229 207.408 36.414 212.205 36.2153 216.654 36.0576 221.232 35.8129 225.824 35.9927 230.37 36.5946 232.528 36.8912 234.653 37.3926 236.716 38.0918 237.526 38.3792 238.29 38.7905 239.095 39.0729 240.413 39.541 241.584 38.7895 242.806 38.3333 247.097 36.7603 251.521 35.5741 256.023 34.789 258.161 34.3957 260.32 34.1244 262.489 33.9766 263.682 33.8987 264.884 33.8518 266.074 33.8867 266.744 33.8001 267.423 33.9532 267.99 34.3189 268.656 34.9807 268.489 36.2942 268.451 37.1226 268.388 38.5749 268.275 40.0271 268.179 41.4774 267.994 44.2535 267.794 47.0285 267.58 49.8026 267.366 52.5767 267.135 55.3501 266.887 58.1229 266.833 59.4505 267.203 60.761 267.942 61.8648 268.504 62.9807 269.035 64.1155 269.508 65.2733 273.206 74.1999 274.271 83.9992 272.576 93.5119 271.795 97.9963 269.792 102.178 266.787 105.597 263.777 108.991 260.526 112.406 256.557 114.688 254.624 115.765 252.572 116.614 250.443 117.217 247.497 118.1 248.752 122.726 251.717 121.837Z" fill="#211715"/><path d="M222.737 98.3418C220.768 98.9506 216.242 98.5683 215.867 94.8484 215.91 89.9367 221.384 89.6582 223.952 91.3081 226.055 92.6615 226.92 96.64 222.737 98.3418Z" fill="#211715"/><path d="M195.582 78.7798C194.784 81.3749 195.283 87.3366 200.18 87.8317 206.651 87.7748 207.014 80.5634 204.843 77.1798 203.066 74.4081 197.825 73.2682 195.582 78.7798Z" fill="#211715"/><path d="M244.392 78.7798C245.191 81.3749 244.691 87.3376 239.801 87.8317 233.329 87.7748 232.967 80.5634 235.137 77.1788 236.908 74.4081 242.15 73.2682 244.392 78.7798Z" fill="#211715"/><path d="M210.027 104.202C211.577 106.23 213.937 107.478 216.486 107.617 219.162 107.866 221.721 106.463 222.952 104.074L218.814 104.074C220.014 106.425 222.511 107.822 225.142 107.613 227.683 107.453 230.024 106.183 231.543 104.141 232.203 102.998 231.82 101.537 230.684 100.864 229.537 100.23 228.095 100.609 227.406 101.723 227.562 101.524 227.406 101.71 227.319 101.785 227.2 101.891 227.091 102.009 226.967 102.111 227.211 101.911 226.867 102.17 226.767 102.228 226.63 102.313 226.487 102.388 226.344 102.466 225.998 102.655 226.617 102.376 226.25 102.517 226.1 102.576 225.946 102.625 225.791 102.67 225.637 102.714 225.482 102.754 225.325 102.787 225.231 102.807 224.726 102.849 225.144 102.823 224.841 102.844 224.537 102.844 224.233 102.823 224.681 102.857 223.934 102.749 223.774 102.679 224.004 102.778 223.698 102.615 223.651 102.579 223.839 102.729 223.452 102.413 223.419 102.379 223.234 102.161 223.078 101.92 222.954 101.662 222.269 100.52 220.788 100.149 219.646 100.833 219.305 101.037 219.02 101.322 218.816 101.662 218.692 101.92 218.536 102.161 218.35 102.379 218.305 102.424 218.016 102.671 218.088 102.616 218.248 102.496 217.707 102.81 217.995 102.685 217.855 102.745 217.696 102.762 217.559 102.812 217.142 102.961 217.752 102.821 217.478 102.835 217.145 102.851 216.821 102.85 216.488 102.835 216.293 102.825 216.199 102.779 216.443 102.835 216.291 102.803 216.143 102.774 215.989 102.735 215.799 102.688 215.613 102.636 215.427 102.569 215.385 102.554 214.98 102.385 215.168 102.469 215.398 102.576 214.875 102.303 214.829 102.276 214.696 102.198 214.565 102.117 214.44 102.028 214.827 102.301 213.868 101.401 214.166 101.793 213.472 100.686 212.037 100.31 210.888 100.934 209.753 101.607 209.37 103.067 210.029 104.211Z" fill="#211715"/><path d="M218.487 99.0624 218.487 101.872C218.523 103.18 219.575 104.231 220.883 104.268 221.518 104.266 222.127 104.015 222.579 103.569 223.019 103.113 223.269 102.506 223.278 101.872L223.278 99.0624C223.243 97.7542 222.191 96.702 220.883 96.6669 220.247 96.6683 219.638 96.9192 219.186 97.3656 218.746 97.8219 218.496 98.4286 218.487 99.0624Z" fill="#211715"/><path d="M257.087 47.3283C256.492 46.2956 255.813 45.3135 255.057 44.3919 254.721 43.9657 254.372 43.5485 254.001 43.1512 253.69 42.8188 253.295 42.5344 253.013 42.184L253.629 43.241C253.769 43.7383 253.666 44.2729 253.351 44.6823 253.212 44.85 253.2 44.8716 253.315 44.7472L252.959 45.0297C253.086 44.9753 253.207 44.9084 253.32 44.83 253.448 44.7652 253.58 44.7093 253.708 44.6474 253.958 44.5266 253.12 44.8829 253.475 44.7472L253.734 44.6474C254.524 44.3541 255.33 44.1084 256.149 43.9118 256.591 43.8033 257.035 43.7058 257.482 43.6193 257.72 43.5734 257.959 43.5305 258.198 43.4906 258.318 43.4706 258.436 43.4536 258.556 43.4347 258.889 43.3818 258.438 43.4497 258.348 43.4596 259.235 43.3467 260.13 43.2971 261.025 43.3109 262.343 43.3001 263.409 42.2339 263.42 40.9155 263.394 39.6034 262.337 38.546 261.025 38.52 259.65 38.5007 258.276 38.6184 256.924 38.8713 255.703 39.0696 254.497 39.3568 253.317 39.7307 252.097 40.0208 250.953 40.5672 249.961 41.3337 248.978 42.1977 248.645 43.5865 249.129 44.8021 249.547 45.5015 250.081 46.1243 250.709 46.6436 250.959 46.9164 251.199 47.1966 251.432 47.484L251.575 47.6617C251.775 47.9052 251.548 47.6357 251.482 47.5379 251.581 47.6836 251.696 47.8214 251.8 47.9641 252.22 48.5336 252.604 49.129 252.95 49.7467 253.626 50.8782 255.083 51.2604 256.228 50.6061 257.347 49.9213 257.726 48.4753 257.087 47.3293Z" fill="#211715"/><path d="M180.052 43.3099C180.923 43.2896 181.794 43.3363 182.658 43.4497 182.957 43.4846 182.015 43.3498 182.52 43.4337L182.807 43.4776C183.045 43.5165 183.285 43.5584 183.522 43.6044 183.993 43.6942 184.461 43.7963 184.927 43.9108 185.727 44.1038 186.515 44.3424 187.288 44.6254 187.376 44.6584 187.463 44.6943 187.551 44.7252 187.95 44.876 187.351 44.6783 187.321 44.6254 187.356 44.6933 187.674 44.7871 187.755 44.8251 187.866 44.8809 187.972 44.9538 188.085 45.0047 188.299 45.1045 187.578 44.5356 187.836 44.8201 187.444 44.3935 187.297 43.7957 187.448 43.2361L188.064 42.1791C187.78 42.5304 187.386 42.8139 187.076 43.1462 186.704 43.5455 186.355 43.9607 186.019 44.3869 185.263 45.3085 184.584 46.2906 183.989 47.3233 183.33 48.4703 183.725 49.9346 184.872 50.594 186.008 51.2467 187.457 50.8666 188.126 49.7407 188.409 49.2314 188.721 48.7379 189.059 48.2625 189.159 48.1188 189.261 47.9768 189.365 47.8363 189.418 47.7645 189.725 47.3603 189.5 47.6537 189.274 47.9471 189.644 47.478 189.693 47.4191 189.803 47.2834 189.915 47.1497 190.03 47.0199 190.411 46.5796 190.817 46.1623 191.248 45.7703 192.306 44.8006 192.49 43.1994 191.678 42.0154 190.771 40.9396 189.542 40.1849 188.172 39.8634 187.024 39.4733 185.847 39.1697 184.653 38.9552 183.14 38.6417 181.597 38.4944 180.052 38.516 178.729 38.516 177.656 39.5885 177.656 40.9115 177.656 42.2344 178.729 43.3069 180.052 43.3069Z" fill="#211715"/><path d="M151.155 100.664C155.858 99.824 160.556 98.9816 165.322 98.5963 169.483 98.2599 173.673 98.206 177.845 98.235 180.928 98.2559 180.931 93.465 177.845 93.444 173.601 93.4151 169.336 93.468 165.104 93.8233 159.987 94.2545 154.932 95.1418 149.882 96.0441 148.613 96.4054 147.868 97.7169 148.208 98.9915 148.584 100.249 149.884 100.986 151.156 100.664Z" fill="#211715"/><path d="M162.898 117.645C168.003 113.031 173.892 109.366 180.287 106.826 181.54 106.445 182.275 105.15 181.96 103.879 181.6 102.61 180.288 101.865 179.014 102.205 171.841 105.017 165.234 109.1 159.511 114.258 158.587 115.198 158.587 116.705 159.511 117.645 160.456 118.556 161.953 118.556 162.898 117.645Z" fill="#211715"/><path d="M289.648 96.0481C284.597 95.1498 279.544 94.2575 274.426 93.8273 270.194 93.472 265.929 93.4191 261.685 93.448 258.604 93.469 258.597 98.2599 261.685 98.239 265.857 98.21 270.047 98.2639 274.208 98.6003 278.975 98.9855 283.672 99.8279 288.375 100.668 289.645 100.982 290.939 100.247 291.321 98.9955 291.661 97.7212 290.917 96.4093 289.648 96.0481Z" fill="#211715"/><path d="M280.02 114.258C274.333 109.051 267.717 104.963 260.517 102.205 259.242 101.866 257.931 102.611 257.57 103.879 257.247 105.151 257.985 106.451 259.243 106.826 262.422 108.058 265.466 109.615 268.326 111.471 271.272 113.277 274.052 115.344 276.63 117.645 277.577 118.553 279.071 118.553 280.019 117.645 280.94 116.704 280.94 115.199 280.019 114.258Z" fill="#211715"/><path d="M262.088 197.851C259.926 211.202 255.512 224.079 253.641 237.476 253.39 239.264 253.169 241.057 252.995 242.853 252.666 244.727 252.58 246.634 252.738 248.53 253.188 251.161 255.097 253.392 256.264 255.731 257.422 257.947 257.268 260.621 255.864 262.691 254.527 264.711 252.316 265.224 250.064 265.6 247.298 266.032 244.499 266.223 241.699 266.17 241.093 266.17 240.487 266.149 239.882 266.114 239.615 266.099 239.348 266.081 239.083 266.057 238.297 265.985 239.533 266.182 238.746 266.011 237.455 265.698 236.222 265.184 235.091 264.488 232.838 263.171 231.286 260.922 230.856 258.348 230.063 255.011 230.798 252.006 231.142 248.666 232.031 240.058 231.958 231.312 232.288 222.668 232.804 209.189 233.486 195.749 233.465 182.255 233.465 179.173 228.674 179.167 228.674 182.255 228.694 194.777 228.135 207.252 227.615 219.759 227.224 229.179 227.216 238.655 226.408 248.052 226.132 251.268 225.3 254.341 225.829 257.587 226.366 260.881 227.467 264.483 230.058 266.765 232.29 268.766 235.019 270.129 237.96 270.71 240.819 271.066 243.71 271.091 246.575 270.785 249.438 270.706 252.273 270.196 254.984 269.272 257.987 268.033 260.282 265.521 261.245 262.418 262.256 259.278 261.893 255.857 260.247 252.999 259.568 251.694 258.757 250.462 258.063 249.164 257.817 248.741 257.621 248.29 257.478 247.822 257.441 247.709 257.414 247.593 257.397 247.476 257.397 247.519 257.43 247.836 257.435 247.569 257.446 247.062 257.491 246.553 257.526 246.046 258.5 231.995 262.952 218.698 265.667 204.963 266.05 203.023 266.399 201.076 266.714 199.122 267.024 197.852 266.29 196.56 265.04 196.176 263.766 195.834 262.453 196.579 262.094 197.848Z" fill="#211715"/><path d="M174.656 199.125C176.896 212.958 181.617 226.303 183.293 240.229 183.526 242.164 183.709 244.104 183.843 246.049 183.876 246.521 183.918 246.995 183.932 247.468 183.932 247.499 183.932 247.849 183.953 247.577 183.976 247.278 183.913 247.753 183.891 247.825 183.748 248.293 183.552 248.744 183.307 249.167 181.845 251.898 179.913 254.471 179.553 257.638 179.269 260.912 180.339 264.158 182.513 266.621 184.463 268.823 187.204 269.749 190.025 270.214 193.103 270.722 196.218 270.971 199.337 270.958 202.134 271.052 204.913 270.479 207.444 269.285 210.372 268.003 212.728 265.692 214.068 262.791 215.573 259.254 216.046 255.364 215.433 251.57 214.126 242.32 214.235 232.853 213.9 223.523 213.473 211.745 212.776 199.992 212.702 188.206 212.689 186.221 212.685 184.237 212.69 182.253 212.69 179.17 207.899 179.166 207.899 182.253 207.88 194.23 208.378 206.156 208.889 218.114 209.294 227.581 209.426 237.069 210.052 246.526 210.404 251.829 212.328 257.82 208.743 262.515 207.137 264.317 204.986 265.544 202.618 266.008 201.831 266.179 203.068 265.982 202.282 266.054 202.015 266.078 201.748 266.096 201.483 266.111 200.878 266.146 200.272 266.162 199.666 266.167 198.161 266.181 196.653 266.127 195.151 266.021 192.81 265.856 190.117 265.717 187.936 264.761 185.733 263.65 184.332 261.404 184.304 258.937 184.157 256.378 186.094 254.034 187.298 251.858 187.925 250.83 188.375 249.704 188.631 248.527 188.789 246.631 188.703 244.723 188.374 242.85 186.891 227.543 181.733 212.985 179.282 197.848 178.922 196.579 177.609 195.834 176.335 196.176 175.08 196.553 174.343 197.851 174.662 199.122Z" fill="#211715"/><path d="M255.167 118.876C258.73 122.096 260.411 126.486 262.077 130.87 263.951 135.805 266.117 140.642 268.158 145.509 272.418 155.67 277.46 165.472 281.713 175.632 285.8 185.393 289.28 195.733 290.432 206.3 291.464 215.766 291.42 226.388 287.513 235.257 283.646 244.04 275.858 251.61 265.778 251.626 262.695 251.626 262.689 256.422 265.778 256.417 275.734 256.402 284.189 250.313 289.319 242.079 294.833 233.229 296.045 222.398 295.654 212.173 295.227 200.994 292.405 190.081 288.451 179.66 284.259 168.606 278.727 158.151 274.078 147.296 271.706 141.765 269.269 136.226 267.091 130.617 264.967 125.146 263.038 119.538 258.558 115.488 256.276 113.426 252.877 116.804 255.171 118.876Z" fill="#211715"/><path d="M182.097 115.488C178.104 119.093 176.078 123.989 174.212 128.91 172.302 133.953 170.108 138.891 168.024 143.87 163.547 154.56 158.202 164.859 153.807 175.585 149.551 185.973 146.228 196.868 145.249 208.095 144.35 218.411 144.969 229.533 149.6 238.965 154.376 248.692 163.674 256.4 174.87 256.417 177.953 256.417 177.958 251.626 174.87 251.626 165.956 251.612 158.732 245.637 154.562 238.126 149.895 229.716 149.298 219.531 149.888 210.121 150.548 199.588 153.541 189.298 157.367 179.507 161.425 169.118 166.649 159.245 171.02 148.989 173.346 143.531 175.723 138.075 177.917 132.562 179.871 127.651 181.436 122.531 185.482 118.876 187.777 116.805 184.378 113.425 182.093 115.488Z" fill="#211715"/><path d="M198.052 260.637C197.795 261.156 197.605 261.705 197.488 262.273 197.367 262.903 197.309 263.543 197.315 264.185 197.33 265.32 197.553 266.443 197.974 267.498 198.163 268.088 198.551 268.594 199.072 268.929 200.214 269.596 201.681 269.212 202.349 268.07 202.685 267.516 202.773 266.846 202.59 266.224 202.337 265.615 202.165 264.975 202.079 264.321L202.164 264.957C202.084 264.351 202.082 263.738 202.156 263.131L202.07 263.768C202.122 263.369 202.222 262.977 202.37 262.603L202.128 263.175C202.145 263.135 202.163 263.095 202.182 263.055 202.354 262.789 202.452 262.481 202.465 262.165 202.537 261.848 202.522 261.518 202.422 261.209 202.071 259.933 200.752 259.184 199.477 259.536 199.476 259.536 199.476 259.536 199.476 259.536 198.871 259.695 198.355 260.091 198.045 260.634Z" fill="#211715"/><path d="M188.537 260.552C188.168 261.58 188.028 262.677 188.129 263.765 188.17 264.44 188.267 265.115 188.376 265.782 188.426 266.438 188.616 267.076 188.933 267.652 189.26 268.181 189.769 268.571 190.364 268.75 190.987 268.916 191.65 268.829 192.21 268.509 192.747 268.192 193.141 267.679 193.308 267.077 193.481 266.455 193.393 265.789 193.066 265.232 193.033 265.19 193.007 265.143 192.988 265.093L193.23 265.666C193.078 265.136 192.976 264.593 192.923 264.044L193.009 264.681C192.887 263.884 192.869 263.074 192.955 262.273L192.87 262.909C192.92 262.537 193.015 262.172 193.154 261.822 193.326 261.2 193.238 260.534 192.912 259.977 192.245 258.835 190.778 258.449 189.636 259.117 189.635 259.117 189.635 259.117 189.635 259.117L189.151 259.492C188.857 259.785 188.644 260.149 188.534 260.549Z" fill="#211715"/><path d="M239.971 263.057C239.989 263.097 240.007 263.137 240.024 263.177L239.783 262.605C239.931 262.979 240.032 263.37 240.082 263.77L239.996 263.133C240.071 263.74 240.068 264.353 239.988 264.959L240.074 264.323C239.988 264.977 239.815 265.617 239.562 266.226 239.391 266.849 239.478 267.514 239.804 268.072 240.471 269.214 241.938 269.599 243.08 268.932 243.081 268.931 243.081 268.931 243.082 268.931L243.566 268.557C243.859 268.264 244.072 267.899 244.182 267.5 244.603 266.445 244.826 265.322 244.84 264.187 244.846 263.558 244.79 262.93 244.673 262.311 244.558 261.731 244.367 261.169 244.105 260.639 243.788 260.101 243.274 259.707 242.672 259.541 242.049 259.375 241.386 259.462 240.827 259.782 240.29 260.1 239.897 260.613 239.729 261.214L239.643 261.851C239.643 262.276 239.756 262.693 239.97 263.06Z" fill="#211715"/><path d="M249.002 261.825C249.141 262.175 249.237 262.54 249.287 262.912L249.201 262.276C249.287 263.077 249.269 263.887 249.147 264.684L249.233 264.047C249.181 264.596 249.078 265.139 248.926 265.669L249.168 265.096C249.15 265.147 249.124 265.193 249.09 265.235 248.422 266.377 248.807 267.844 249.949 268.512 250.507 268.838 251.172 268.925 251.795 268.753 252.386 268.565 252.892 268.177 253.227 267.655 253.544 267.079 253.734 266.441 253.783 265.785 253.9 265.117 253.982 264.444 254.031 263.768 254.131 262.68 253.992 261.583 253.623 260.555 253.433 259.965 253.045 259.46 252.525 259.123 251.383 258.456 249.915 258.84 249.247 259.982 249.247 259.982 249.247 259.982 249.247 259.983 248.912 260.537 248.824 261.206 249.005 261.828Z" fill="#211715"/><path d="M211.424 34.5894 211.424 41.9754C211.424 43.5189 212.676 44.7702 214.219 44.7702 215.763 44.7702 217.014 43.5189 217.014 41.9754L217.014 34.5894C217.014 33.0459 215.763 31.7947 214.219 31.7947 212.676 31.7947 211.424 33.0459 211.424 34.5894Z" fill="#211715"/><path d="M222.963 34.5894 222.963 41.9754C222.963 43.5189 224.214 44.7702 225.757 44.7702 227.301 44.7702 228.552 43.5189 228.552 41.9754L228.552 34.5894C228.552 33.0459 227.301 31.7947 225.757 31.7947 224.214 31.7947 222.963 33.0459 222.963 34.5894Z" fill="#211715"/></g></g></g></g></svg>