<svg width="400" height="300" xmlns="http://www.w3.org/2000/svg" xmlns:xlink="http://www.w3.org/1999/xlink" overflow="hidden"><defs><clipPath id="clip0"><rect x="0" y="0" width="400" height="300"/></clipPath><clipPath id="clip1"><rect x="58" y="55" width="284" height="190"/></clipPath><clipPath id="clip2"><rect x="58" y="55" width="284" height="191"/></clipPath><clipPath id="clip3"><rect x="58" y="55" width="284" height="191"/></clipPath></defs><g clip-path="url(#clip0)"><rect x="0" y="0" width="400" height="300" fill="#FFFFFF"/><g clip-path="url(#clip1)"><g clip-path="url(#clip2)"><g clip-path="url(#clip3)"><path d="M237.269 98.8452C261.046 107.623 295.435 127.206 274.555 152.563 255.778 175.369 215.425 182.743 187.77 185.449 179.5 186.259 152.117 187.819 141.48 187.928 130.845 187.819 103.461 186.259 95.1899 185.449 67.5321 182.743 27.179 175.369 8.40151 152.563-16.2214 122.659 36.0256 100.785 57.073 95.1949Z" fill="#FFFFFF" transform="matrix(1.00373 0 0 1 58 55.1099)"/><path d="M257.227 110.317C269.081 117.31 284.649 129.972 276.926 145.404 273.609 152.035 267.722 157.416 261.711 161.603 255.639 165.749 249.093 169.155 242.213 171.75 228.137 177.204 213.171 180.306 198.238 182.28 185.903 183.911 173.474 184.584 161.051 185.216 154.817 185.534 148.577 185.846 142.335 185.945 136.477 186.038 130.584 185.64 124.734 185.356 112.356 184.756 99.9436 184.149 87.635 182.65 72.7061 180.832 57.7542 177.927 43.5814 172.81 30.4945 168.085 16.5735 160.955 8.36037 149.281 5.1732 144.749 3.12136 139.256 4.21556 133.753 5.26369 128.478 8.51998 124.007 12.2822 120.295 21.1675 111.528 33.0927 105.754 44.6295 101.345 47.1618 100.377 49.7191 99.4795 52.3013 98.6535 54.7126 97.8827 53.6818 94.0686 51.2515 94.8452 39.0178 98.7572 26.7784 104.083 16.3843 111.711 7.0136 118.594-2.13082 128.798 0.439327 141.325 1.81901 148.047 6.3291 153.793 11.1699 158.445 16.6621 163.584 22.8971 167.867 29.6653 171.149 43.8249 178.233 59.4317 182.187 74.9817 184.783 87.8181 186.791 100.753 188.104 113.731 188.716 126.429 189.451 139.079 190.115 151.794 189.593 164.692 189.061 177.657 188.509 190.5 187.146 205.784 185.523 221.087 182.939 235.743 178.215 250.091 173.592 264.71 166.752 274.851 155.245 280.296 149.068 284.138 141.404 282.604 133.001 281.205 125.332 275.627 118.993 269.782 114.199 266.454 111.499 262.922 109.06 259.219 106.904 257.026 105.61 255.037 109.022 257.227 110.314Z" fill="#211715" transform="matrix(1.00373 0 0 1 58 55.1099)"/><path d="M144.556 165.011C133.006 163.226 117.22 158.457 105.811 159.462 93.8127 160.52 84.6173 169.037 72.2092 169.228 59.5395 169.422 44.3374 162.523 41.1462 149.716 37.6266 135.594 55.2844 129.769 66.0084 130.876 79.152 132.236 87.932 138.19 98.4635 145.612 100.743 147.303 104.183 147.34 106.807 147.498 118.9 148.213 131.368 148.809 143.348 148.856 156.292 148.907 170.381 148.911 183.283 148.993 193.082 149.054 211.93 146.464 208.602 162.001 205.805 175.075 191.901 173.941 180.735 172.178 168.059 170.179 144.757 165.042 144.556 165.011Z" fill="#CFCFCF" transform="matrix(1.00373 0 0 1 58 55.1099)"/><path d="M145.081 163.107C137.937 161.991 130.914 160.218 123.797 158.944 116.84 157.699 109.581 156.649 102.552 157.931 95.6844 159.183 89.5536 162.669 83.0451 165.015 79.791 166.27 76.3639 167.019 72.883 167.236 69.9437 167.343 67.0029 167.072 64.1327 166.43 58.4502 165.181 52.8615 162.673 48.646 158.595 46.6729 156.726 45.0865 154.486 43.9771 152.005 43.3929 150.665 42.9866 149.254 42.7685 147.809 42.7008 147.271 42.6662 146.729 42.6649 146.187 42.6653 145.658 42.701 145.128 42.7718 144.604 43.1292 142.518 44.1182 140.591 45.6052 139.086 47.2212 137.461 49.133 136.162 51.2375 135.256 55.5602 133.321 60.2893 132.469 65.0154 132.774 71.7855 133.193 78.382 135.533 84.2923 138.77 87.3948 140.469 90.3623 142.404 93.2788 144.402 94.7646 145.42 96.2076 146.515 97.7157 147.498 99.2895 148.434 101.053 149.005 102.877 149.168 106.853 149.69 110.935 149.723 114.937 149.933 119.263 150.16 123.589 150.352 127.916 150.509 136.516 150.815 145.116 150.843 153.721 150.865 162.248 150.888 170.775 150.915 179.302 150.947 184.187 150.972 189.092 150.723 193.973 150.878 196.083 150.89 198.186 151.125 200.247 151.578 200.733 151.691 201.216 151.819 201.691 151.97 201.922 152.042 202.151 152.12 202.378 152.204 202.49 152.244 202.601 152.286 202.713 152.33 203.059 152.463 202.606 152.277 202.809 152.371 203.201 152.546 203.582 152.742 203.953 152.958 204.145 153.072 204.331 153.195 204.517 153.317 204.974 153.616 204.498 153.244 204.898 153.609 205.2 153.884 205.481 154.168 205.754 154.472 206.053 154.805 205.707 154.331 205.935 154.719 206.06 154.933 206.2 155.136 206.317 155.355 206.366 155.447 206.625 156.032 206.473 155.652 206.56 155.868 206.637 156.09 206.702 156.314 206.767 156.538 206.83 156.783 206.88 157.021 206.906 157.143 206.928 157.267 206.948 157.391 207.009 157.75 206.948 157.315 206.966 157.542 207.18 160.057 206.699 162.582 205.577 164.843 203.397 169.165 198.974 170.823 194.322 171.168 188.975 171.565 183.726 170.714 178.513 169.821 168.057 168.031 157.67 165.82 147.303 163.583 146.562 163.424 145.822 163.239 145.081 163.105 144.034 162.845 142.967 163.451 142.653 164.483 142.373 165.534 142.986 166.614 144.032 166.912 146.952 167.44 149.848 168.166 152.752 168.778 158.667 170.025 164.589 171.24 170.523 172.368 176.182 173.554 181.898 174.442 187.65 175.027 193.009 175.47 198.992 175.342 203.732 172.477 208.621 169.515 211.322 163.491 210.937 157.846 210.834 155.501 209.934 153.262 208.387 151.498 206.876 149.951 204.991 148.822 202.915 148.219 198.499 146.771 193.618 146.835 189.026 146.924 182.362 147.053 175.698 146.979 169.027 146.959 151.182 146.903 133.363 146.938 115.536 146.014 111.499 145.805 107.357 145.809 103.347 145.28 101.624 145.046 99.9917 144.368 98.6099 143.313 97.0468 142.216 95.4836 141.125 93.9024 140.061 87.8917 136.019 81.5305 132.418 74.5087 130.471 68.6382 128.715 62.4339 128.381 56.4091 129.499 51.3494 130.52 46.0544 132.707 42.5242 136.599 38.6172 140.908 37.8759 146.646 39.7854 152.055 41.9162 158.093 46.525 162.822 52.0059 165.984 57.6135 169.169 63.9075 170.952 70.3523 171.182 77.8267 171.465 84.5803 168.764 91.3216 165.876 94.5345 164.416 97.8552 163.206 101.254 162.256 104.595 161.448 108.039 161.146 111.47 161.36 119.011 161.713 126.443 163.431 133.805 164.97 137.2 165.679 140.598 166.383 144.025 166.918 145.072 167.173 146.137 166.569 146.454 165.539 146.738 164.489 146.126 163.406 145.081 163.107Z" fill="#211715" transform="matrix(1.00373 0 0 1 58 55.1099)"/><path d="M52.1803 155.704C53.9675 157.866 56.1386 159.679 58.5843 161.052 61.1624 162.397 63.9996 163.172 66.9035 163.323 67.994 163.323 68.878 162.439 68.878 161.349 68.878 160.258 67.994 159.374 66.9035 159.374 64.6368 159.228 62.4259 158.607 60.414 157.553 59.897 157.268 59.3948 156.956 58.9093 156.62 58.8067 156.549 58.7042 156.476 58.6016 156.402 58.6131 156.41 58.196 156.099 58.3465 156.215 58.5111 156.342 58.1302 156.042 58.0997 156.014 57.9752 155.912 57.8524 155.809 57.7312 155.705 56.7421 154.845 55.8207 153.91 54.9751 152.908 54.2001 152.146 52.9578 152.146 52.1828 152.908 51.4329 153.688 51.4329 154.921 52.1828 155.7Z" fill="#211715" transform="matrix(1.00373 0 0 1 58 55.1099)"/><path d="M73.3519 163.184C74.4178 163.22 75.4831 163.095 76.512 162.814 77.4066 162.604 78.2838 162.326 79.1356 161.981 79.6235 161.828 80.0415 161.507 80.3154 161.076 80.8656 160.134 80.5484 158.925 79.607 158.375 79.1501 158.099 78.5984 158.027 78.0858 158.176 76.8351 158.692 75.5253 159.051 74.1862 159.245L74.7111 159.174C74.2625 159.239 73.8085 159.259 73.356 159.232 72.2656 159.229 71.3794 160.111 71.3767 161.202 71.3754 161.728 71.5845 162.234 71.9574 162.605 72.3403 162.957 72.8362 163.162 73.356 163.181Z" fill="#211715" transform="matrix(1.00373 0 0 1 58 55.1099)"/><path d="M182.136 167.433C185.208 167.998 188.322 168.297 191.444 168.326 194.062 168.299 196.885 167.991 199.166 166.599 201.332 165.277 199.35 161.861 197.172 163.189 196.964 163.316 196.75 163.426 196.535 163.541 196.326 163.636 196.31 163.646 196.487 163.57 196.366 163.618 196.244 163.663 196.122 163.706 195.599 163.885 195.064 164.025 194.521 164.126 193.422 164.309 192.309 164.393 191.195 164.378 188.51 164.347 185.832 164.096 183.188 163.627 182.14 163.37 181.075 163.975 180.758 165.006 180.477 166.056 181.092 167.138 182.138 167.435Z" fill="#211715" transform="matrix(1.00373 0 0 1 58 55.1099)"/><path d="M73.036 125.715C56.1606 101.76 50.2832 71.2771 49.6291 42.4641 49.5543 39.1733 49.5682 35.8117 50.5909 32.6805 52.3803 27.2012 59.1298 21.9935 64.1483 19.1584 76.7431 12.0428 99.3907 5.05555 119.245 3.20857 126.967 2.49034 134.339 2.06911 141.55 1.96216 148.761 2.06911 156.133 2.49034 163.854 3.20857 178.135 4.40513 192.163 7.68921 205.491 12.956 214.595 16.6089 226.459 21.5665 231.208 30.743 233.889 35.9261 234.015 42.047 233.403 47.8471 229.902 81.0755 223.84 116.854 197.164 140.001Z" fill="#FFFFFF" transform="matrix(1.00373 0 0 1 58 55.1099)"/><path d="M79.3248 44.7875C77.7234 44.102 76.1656 43.319 74.66 42.4428 83.0435 30.4723 114.719 28.3818 127.564 27.7747 141.945 27.0943 158.857 27.2218 175.677 29.6274 182.4 30.5883 207.255 36.8343 208.756 45.4234 195.412 50.6396 181.392 53.9222 167.119 55.1717 159.691 55.8628 152.257 56.2124 144.815 56.2207 137.381 56.2015 129.946 55.8518 122.51 55.1717 108.238 53.9236 94.2166 50.6421 80.8723 45.4267 80.41 45.249 79.8851 45.0302 79.3248 44.7875Z" fill="#957F6E" transform="matrix(1.00373 0 0 1 58 55.1099)"/><path d="M268.599 77.8283C266.332 92.1286 254.134 104.015 242.552 110.962 235.148 115.405 210.214 128.548 208.131 129.315 208.131 129.315 207.676 129.48 206.924 129.764 213.7 121.245 218.922 111.278 222.876 100.678L223.602 100.375C231.942 96.9201 242.164 90.9612 245.799 81.9591 249.185 73.5782 239.793 63.6769 230.754 70.674 231.823 64.4132 232.563 58.182 233.032 52.1359L233.686 51.964C241.592 49.8833 250.745 49.8899 257.749 53.3576 263.786 56.3474 268.225 61.9097 268.893 70.9241 269.062 73.2291 268.963 75.546 268.599 77.8283Z" fill="#FFFFFF" transform="matrix(1.00373 0 0 1 58 55.1099)"/><path d="M69.4638 31.295C67.8668 32.499 66.9523 34.4024 67.0105 36.4016 67.2836 38.3072 68.2503 40.045 69.7254 41.2819 72.6255 43.9903 76.3844 45.7393 80.0282 47.2054 91.8327 51.8613 104.183 54.9915 116.78 56.5201 129.98 58.1432 143.297 58.6043 156.577 57.8982 169.555 57.2606 182.476 55.6036 195.013 52.1104 198.468 51.1467 201.886 50.0572 205.268 48.8418 207.875 48.0087 210.409 46.9631 212.846 45.7155 214.906 44.6869 216.547 42.9763 217.488 40.8747 218.508 38.2864 217.635 35.5114 216.273 33.2317 214.971 31.0523 211.556 33.0359 212.864 35.2251 213.414 36.0702 213.792 37.0154 213.977 38.0067 214.077 38.6639 213.946 39.3356 213.605 39.9063 212.78 41.1156 211.621 42.0588 210.269 42.6213 208.305 43.5548 206.284 44.3632 204.218 45.0417 201.44 46.0355 198.636 46.9474 195.805 47.7772 184.335 51.0387 172.542 53.0301 160.637 53.7155 136.413 55.3075 111.477 53.8241 88.3384 46.0495 83.5667 44.4477 79.3289 43.0219 75.1142 40.4074 74.3161 39.929 73.5584 39.3864 72.8484 38.785 72.2085 38.2733 71.6628 37.6539 71.2359 36.9545 71.1598 36.8241 71.0906 36.6898 71.0286 36.5522 71.1981 36.9421 70.9702 36.2889 70.9463 36.2074 70.8139 35.6727 70.9809 36.613 70.9365 36.0692 70.9343 35.9578 70.9378 35.8463 70.9472 35.7352 70.9143 35.9546 70.9126 35.9897 70.9422 35.8405 70.9801 35.699 71.013 35.5583 71.0648 35.4193 70.9315 35.778 71.2491 35.1198 71.3001 35.0449 71.5848 34.6933 71.9055 34.3723 72.2569 34.0873 73.0185 33.3124 73.0185 32.07 72.2569 31.295 71.4769 30.5459 70.2447 30.5459 69.4646 31.295Z" fill="#211715" transform="matrix(1.00373 0 0 1 58 55.1099)"/><path d="M74.7407 124.723C67.0642 113.555 61.3571 101.154 57.8669 88.0595 54.345 74.9464 52.3067 61.4793 51.7904 47.9113 51.5335 44.3892 51.4994 40.8544 51.6884 37.328 51.8635 34.3095 52.9928 31.4246 54.9134 29.0894 58.6312 24.599 63.6909 21.4513 68.8608 18.9075 80.5885 13.142 93.5116 9.46527 106.316 7.03992 113.497 5.74529 120.751 4.89218 128.036 4.48541 135.597 3.96718 143.182 3.88478 150.753 4.2386 165.978 4.99714 181.095 6.86715 195.663 11.5171 201.788 13.4488 207.77 15.8069 213.565 18.5743 218.709 21.0556 223.881 24.0865 227.492 28.6114 231.683 33.866 232.099 40.6945 231.495 47.1338 230.929 53.1742 230.169 59.2112 229.281 65.2121 227.477 77.3956 224.939 89.5396 220.69 101.124 216.536 112.453 210.581 123.207 202.405 132.14 200.314 134.419 198.096 136.578 195.762 138.608 193.843 140.279 196.646 143.063 198.555 141.4 208.128 132.909 215.774 122.469 220.98 110.779 226.238 99.2344 229.514 86.9209 231.757 74.461 232.897 68.1327 233.781 61.76 234.54 55.3741 235.348 48.595 236.475 41.6019 234.83 34.8582 231.72 22.1111 218.588 16.1473 207.532 11.6578 193.175 5.93333 178.045 2.38131 162.641 1.11888 154.813 0.313069 146.946-0.0481323 139.077 0.037022 131.255 0.229536 123.392 0.679558 115.624 1.62403 101.556 3.31335 87.7687 6.82763 74.609 12.0782 69.1586 14.2699 63.6933 16.7216 58.9117 20.1753 56.1842 22.0622 53.7359 24.3239 51.639 26.8935 49.4897 29.6262 48.1684 32.9175 47.8315 36.3777 47.5396 39.9868 47.5327 43.6133 47.8109 47.2235 47.9634 50.7639 48.2001 54.2991 48.5209 57.8291 49.148 64.8333 50.162 71.7975 51.5584 78.6897 54.3646 92.3787 58.9224 105.812 65.8225 118 67.5162 120.992 69.3536 123.896 71.3347 126.712 71.9029 127.629 73.0903 127.941 74.0356 127.42 74.9694 126.864 75.2847 125.662 74.744 124.719Z" fill="#211715" transform="matrix(1.00373 0 0 1 58 55.1099)"/><path d="M76.4651 43.2984C76.5177 43.2268 76.5704 43.1544 76.6239 43.0828 76.8098 42.836 76.4486 43.2984 76.6477 43.0581 76.7637 42.9183 76.8797 42.7784 76.9998 42.6418 77.285 42.3166 77.5837 42.004 77.8958 41.704 78.4462 41.1631 79.0367 40.6645 79.6621 40.2124 81.2327 39.098 82.9059 38.136 84.6593 37.3395 88.6332 35.5953 92.7771 34.2673 97.0246 33.3765 105.555 31.5544 114.219 30.4264 122.931 30.0034 134.804 29.2278 146.714 29.1879 158.592 29.8841 164.656 30.1586 170.697 30.7946 176.685 31.7887 180.146 32.4421 183.57 33.2828 186.94 34.307 190.984 35.4547 194.922 36.9439 198.714 38.7587 200.431 39.5919 202.074 40.571 203.625 41.685 203.723 41.7483 203.816 41.8202 203.902 41.8998 204.044 42.0166 204.187 42.1334 204.326 42.2544 204.637 42.5234 204.938 42.8031 205.224 43.0976 205.474 43.3543 205.712 43.6222 205.936 43.9014 206.077 44.0767 205.881 43.8331 205.868 43.8191 205.928 43.9014 205.992 43.9837 206.047 44.0717 206.141 44.2214 206.24 44.3662 206.329 44.5193 206.418 44.6723 206.489 44.8212 206.571 44.9709 206.749 45.3 206.482 44.6748 206.596 45.0228 206.702 45.3268 206.788 45.6377 206.851 45.9533 207.15 46.9983 208.23 47.6116 209.281 47.3321 210.317 47.023 210.926 45.9512 210.66 44.9027 210.009 41.458 206.834 38.9627 204.043 37.2054 200.274 34.9566 196.259 33.1474 192.078 31.8133 188.204 30.4807 184.257 29.3716 180.256 28.4912 175.282 27.4897 170.25 26.8028 165.19 26.4345 151.951 25.3037 138.647 25.1283 125.383 25.9096 116.497 26.2934 107.649 27.3079 98.9069 28.9454 94.2825 29.7995 89.747 31.0798 85.3586 32.7702 81.5741 34.2872 77.8127 36.1951 74.8995 39.105 74.2275 39.7882 73.6097 40.5227 73.0517 41.3017 72.5096 42.2442 72.8252 43.4474 73.76 44.0026 74.705 44.5276 75.8959 44.2154 76.4618 43.2943Z" fill="#211715" transform="matrix(1.00373 0 0 1 58 55.1099)"/><path d="M234.211 53.8694C241.816 51.8899 250.72 51.6982 257.65 55.5345 261.091 57.3868 263.796 60.3603 265.316 63.9615 267.118 68.6188 267.518 73.7015 266.467 78.5835 264.285 89.4055 256.519 98.4388 247.928 104.953 241.394 109.908 233.917 113.622 226.712 117.486 220.495 120.821 214.289 124.272 207.903 127.276 207.762 127.342 207.62 127.404 207.481 127.471 207.059 127.675 207.967 127.281 207.608 127.416 206.576 127.731 205.97 128.798 206.229 129.845 206.526 130.891 207.607 131.506 208.658 131.225 210.858 130.299 213.003 129.249 215.083 128.079 218.874 126.125 222.65 124.141 226.411 122.127 230.322 120.041 234.227 117.937 238.099 115.785 241.673 113.873 245.135 111.755 248.465 109.443 257.926 102.647 266.573 93.3355 269.747 81.862 272.506 71.89 270.716 60.1326 262.026 53.6629 254.807 48.2881 244.886 47.7772 236.331 49.3576 235.269 49.5543 234.214 49.792 233.167 50.0643 230.71 50.7044 231.752 54.5144 234.217 53.8727Z" fill="#211715" transform="matrix(1.00373 0 0 1 58 55.1099)"/><path d="M231.751 72.3803C234.229 70.5087 237.271 69.5724 240.04 70.9718 242.407 72.2132 244.047 74.5017 244.461 77.1422 244.935 80.3392 243.167 83.4046 241.278 85.8834 239.082 88.6485 236.449 91.0355 233.482 92.9497 230.202 95.1253 226.717 96.9743 223.077 98.4701 222.048 98.789 221.445 99.8521 221.698 100.899 221.993 101.946 223.076 102.561 224.127 102.278 231.827 99.069 239.482 94.7588 244.601 87.9945 247.002 84.8197 248.894 80.9678 248.377 76.8937 247.917 73.1511 245.776 69.8222 242.562 67.8505 238.448 65.3931 233.482 66.1541 229.758 68.9669 228.845 69.5389 228.535 70.7224 229.05 71.6687 229.605 72.604 230.809 72.9196 231.751 72.377Z" fill="#211715" transform="matrix(1.00373 0 0 1 58 55.1099)"/></g></g></g></g></svg>