<svg width="400" height="300" xmlns="http://www.w3.org/2000/svg" xmlns:xlink="http://www.w3.org/1999/xlink" overflow="hidden"><defs><clipPath id="clip0"><rect x="0" y="0" width="400" height="300"/></clipPath><clipPath id="clip1"><rect x="115" y="10" width="170" height="280"/></clipPath><clipPath id="clip2"><rect x="115" y="10" width="170" height="280"/></clipPath><clipPath id="clip3"><rect x="115" y="10" width="170" height="280"/></clipPath></defs><g clip-path="url(#clip0)"><rect x="0" y="0" width="400" height="300" fill="#FFFFFF"/><g clip-path="url(#clip1)"><g clip-path="url(#clip2)"><g clip-path="url(#clip3)"><path d="M39.6472 275.342C39.9419 275.578 40.2554 275.79 40.5845 275.975 42.135 276.93 44.0995 276.896 45.6161 275.888 46.3518 275.111 47.0273 274.278 47.6367 273.398 50.059 270.695 54.4506 271.283 58.1571 271.232 62.8304 271.167 67.3806 269.725 71.239 267.088L77.573 267.566C77.5179 259.072 77.8905 250.582 78.6894 242.126 73.2778 241.54 64.7972 240.494 59.8343 239.446 58.4623 241.713 57.1485 243.793 55.94 245.589 52.5935 250.563 44.3936 257.362 38.9082 259.783 36.9166 260.645 34.746 261.011 32.582 260.85 32.4753 262.096 32.6501 263.351 33.0933 264.52 34.131 267.213 35.4457 269.791 37.0163 272.212 37.7176 273.391 38.6062 274.449 39.6473 275.342Z" fill="#FFFFFF" transform="matrix(1.00256 0 0 1 115.061 10)"/><path d="M128.346 143.61C140.838 147.2 150.743 135.448 150.114 126.909 149.761 122.026 148.554 117.243 146.549 112.777 143.97 106.628 138.936 94.1213 137.159 71.3111 137.317 64.3624 136.044 54.4219 135.523 50.6024 133.716 37.3649 126.811 22.898 117.722 15.1972 113.793 11.8672 112.61 10.2709 108.442 8.34592L103.771 6.18706 101.487 5.42889C93.4093 2.66416 84.8489 1.59103 76.3383 2.27624 59.23 3.38132 44.5701 13.181 38.2292 20.0845 27.7087 31.5422 21.866 51.6084 24.51 78.5859 25.6977 96.9097 25.0499 110.225 23.4319 117.871 22.2463 124.164 21.7506 130.569 21.9538 136.97 22.4294 145.52 32.2916 154.293 45.7543 150.515 45.7543 150.515 72.1745 157.248 90.2018 155.131 109.392 152.881 128.346 143.61 128.346 143.61Z" fill="#AD7B59" transform="matrix(1.00256 0 0 1 115.061 10)"/><path d="M123.519 68.2298 120.289 64.585C114.005 63.1069 106.464 52.9543 103.798 48.6513 101.925 45.6274 99.6667 38.9334 97.9278 34.2592 91.2721 44.1789 82.4784 51.4719 71.2294 55.4888 68.5576 56.4756 70.5669 47.6636 70.7869 43.552 64.0051 51.1336 51.071 63.906 44.1128 70.3913L39.0369 75.3472C37.5313 73.585 35.1753 72.7989 32.9133 73.3039 31.104 73.6802 29.5623 74.8553 28.7199 76.5001 28.2493 77.6142 28.0183 78.8148 28.0417 80.024 27.9535 84.7678 29.171 89.4446 31.5613 93.5432 32.6971 95.6186 34.2671 97.4246 36.1642 98.8382 37.7657 99.9537 40.0437 101.197 42.7842 100.069 44.1517 104.195 46.0828 108.113 48.5227 111.71 50.5694 113.85 52.4439 115.82 52.4439 115.82 56.3407 120.076 61.061 123.496 66.3187 125.873 66.206 127.998 65.9656 130.114 65.5988 132.211 65.0771 135.192 65.2397 137.856 61.0959 139.353 60.7942 139.462 43.3259 144.939 44.0624 144.877 44.0624 152.301 60.1264 163.121 81.5733 163.121 106.111 163.121 122.224 151.915 122.224 145.232L121.872 145.086C121.453 144.912 109.699 139.322 109.425 139.223 105.28 137.726 105.443 135.061 104.922 132.081 104.446 129.417 104.151 126.724 104.038 124.02 114.396 118.47 122.017 103.212 123.253 99.0364 123.412 98.4278 123.719 97.3436 124 96.0428 125.863 95.5873 128.582 95.4977 130.006 94.2031 131.706 92.5575 133.031 90.5646 133.89 88.3603 135.731 83.989 136.334 79.1959 135.635 74.5047 135.502 73.3021 135.117 72.1411 134.505 71.0973 133.459 69.5743 131.779 68.6072 129.936 68.4671 128.187 68.3258 126.456 68.9035 125.143 70.0669Z" fill="#FFFFFF" transform="matrix(1.00256 0 0 1 115.061 10)"/><path d="M126.35 71.7867C128.095 70.0956 131.229 70.0617 132.709 72.1502 133.545 73.3309 133.665 75.0507 133.768 76.4479 133.901 78.1408 133.855 79.8431 133.631 81.5264 133.227 84.684 132.15 87.7181 130.472 90.4236 129.897 91.5173 129.025 92.427 127.956 93.0484 126.57 93.4965 125.143 93.8075 123.696 93.977 121.069 94.5283 122.18 98.5521 124.805 98.0009 126.143 97.7977 127.469 97.5214 128.776 97.1731 130.222 96.6965 131.505 95.8228 132.478 94.6517 134.587 92.1066 136.112 89.1301 136.946 85.9319 137.899 82.6011 138.213 79.12 137.872 75.6723 137.525 72.3249 136.568 68.9775 133.34 67.3412 130.047 65.6617 126.051 66.264 123.399 68.8393 121.468 70.7121 124.42 73.6613 126.35 71.7902Z" fill="#211715" transform="matrix(1.00256 0 0 1 115.061 10)"/><path d="M122.527 90.4166C122.557 93.4148 122.039 96.3933 121.001 99.2059 120.869 99.572 120.723 99.9328 120.579 100.294 120.391 100.767 120.699 100.041 120.477 100.533 120.369 100.771 120.265 101.012 120.156 101.249 119.676 102.299 119.159 103.331 118.617 104.349 115.916 109.652 112.338 114.46 108.034 118.57 105.75 120.779 103.001 122.448 99.9876 123.455 97.4209 124.224 98.5138 128.253 101.097 127.479 107.574 125.539 112.589 120.496 116.589 115.259 119.977 110.886 122.739 106.063 124.798 100.929 126.111 97.5825 126.759 94.0114 126.703 90.4166 126.622 87.7378 122.448 87.7256 122.53 90.4166Z" fill="#211715" transform="matrix(1.00256 0 0 1 115.061 10)"/><path d="M39.2282 72.6866C36.4689 70.7147 32.8039 70.5639 29.8919 72.3023 26.8932 74.136 25.9472 77.2478 25.9498 80.6022 25.9559 87.1066 28.3321 94.3065 33.0455 98.9399 35.6538 101.5 39.1743 103.309 42.8703 102.26 45.45 101.528 44.3536 97.5001 41.7609 98.2356 39.096 98.9921 36.6415 96.8541 35.0365 94.9499 33.0452 92.4554 31.6259 89.5542 30.8788 86.451 30.4725 84.9117 30.2289 83.3339 30.1519 81.7438 29.9539 80.289 30.1053 78.808 30.5936 77.4234 31.8108 74.8881 35.0887 74.7794 37.1223 76.2931 38.1186 76.8671 39.3911 76.5334 39.9776 75.5445 40.5309 74.5459 40.2012 73.2887 39.229 72.6901Z" fill="#211715" transform="matrix(1.00256 0 0 1 115.061 10)"/><path d="M39.4421 96.115C40.9183 102.231 43.4925 108.029 47.0394 113.226 47.6403 114.196 48.8953 114.525 49.8947 113.975 50.8811 113.386 51.2142 112.116 50.6433 111.119 47.2894 106.23 44.8571 100.769 43.4659 95.0056 42.8025 92.405 38.7761 93.5075 39.4421 96.115Z" fill="#211715" transform="matrix(1.00256 0 0 1 115.061 10)"/><path d="M96.095 35.3069C97.9965 40.4619 99.5728 46.0317 102.607 50.6615 105.334 54.9638 108.632 58.8761 112.41 62.2914 114.481 64.2795 116.99 65.7541 119.734 66.5969 122.342 67.2508 123.451 63.2269 120.843 62.5731 116.716 61.5376 113.121 57.4433 110.381 54.1715 107.593 50.9925 105.313 47.4019 103.621 43.5268 102.357 40.455 101.273 37.3128 100.12 34.1975 99.7886 33.1059 98.6602 32.4652 97.5531 32.7403 96.4478 33.0542 95.7987 34.1968 96.095 35.3069Z" fill="#211715" transform="matrix(1.00256 0 0 1 115.061 10)"/><path d="M96.102 33.2402C92.4013 38.8343 87.6887 43.6882 82.2063 47.5523 79.4063 49.4871 76.4179 51.1339 73.2865 52.4674 72.5336 52.7865 71.7685 53.0838 70.9981 53.3603 70.426 53.5655 70.5764 53.4325 71.0625 53.5064 71.2396 53.5315 71.4102 53.5905 71.565 53.6803 71.605 53.7038 72.1589 54.2776 71.9798 54.055 72.1771 54.3002 72.0963 54.3637 71.998 53.9924 71.8772 53.5377 71.9858 54.2072 71.9693 53.8098 71.9458 53.2534 71.9389 52.703 71.9693 52.1457 72.1084 49.2661 72.7066 46.4299 72.877 43.5537 72.8527 42.39 71.8895 41.4664 70.7258 41.4907 70.198 41.5018 69.6936 41.7105 69.3123 42.0756 60.9072 51.4536 51.8423 60.329 42.6373 68.9158 40.6697 70.7521 43.6259 73.6978 45.5891 71.8667 54.7932 63.28 63.8582 54.4045 72.2623 45.0274L68.6976 43.5494C68.5237 46.4255 67.9289 49.2617 67.7898 52.1413 67.6742 54.5132 68.2515 58.3658 71.6024 57.5502 73.4661 56.9928 75.2714 56.2561 76.993 55.3505 78.6995 54.5516 80.3604 53.6587 81.9681 52.6761 85.2978 50.6352 88.3989 48.2429 91.2182 45.5404 94.4019 42.4529 97.2474 39.0349 99.7067 35.3443 101.214 33.1133 97.6 31.0222 96.1028 33.2376Z" fill="#211715" transform="matrix(1.00256 0 0 1 115.061 10)"/><path d="M102.042 3.41697C92.9376 0.372559 83.2784-0.648458 73.7387 0.425165 64.3586 1.59001 55.3611 4.85139 47.4132 9.96746 41.339 13.6779 36.136 18.6541 32.1586 24.5569 28.0981 31.0182 25.2649 38.1734 23.8014 45.663 21.5217 56.4669 21.3669 67.6307 22.4233 78.5894 22.4539 79.7289 23.3704 80.6455 24.51 80.6761 25.6591 80.668 26.5886 79.7385 26.5967 78.5894 24.9978 62.0358 25.849 43.8111 34.3114 29.0355 37.4514 23.58 41.7633 18.8895 46.9359 15.3024 54.0166 10.2344 62.1042 6.7479 70.6504 5.07937 80.7824 3.30629 91.198 4.11851 100.933 7.44081 103.489 8.28506 104.584 4.25599 102.042 3.41697Z" fill="#211715" transform="matrix(1.00256 0 0 1 115.061 10)"/><path d="M139.245 71.3111C139.268 66.4006 138.971 61.4937 138.357 56.6217 137.963 52.2949 137.283 47.999 136.32 43.7624 133.836 33.7558 129.081 23.7692 121.9 16.2728 120.044 14.3356 117.95 12.628 115.935 10.8613 114.005 9.123 111.837 7.66936 109.496 6.5444 108.496 5.99571 107.242 6.32451 106.641 7.29301 106.069 8.28926 106.402 9.56004 107.389 10.1474 109.293 11.024 111.065 12.1608 112.656 13.5253 114.394 15.0312 116.181 16.5179 117.841 18.1125 121.192 21.4258 124.025 25.2247 126.245 29.3816 128.673 33.7935 130.57 38.4774 131.897 43.3355 132.575 45.7953 133.097 48.2953 133.462 50.8206 133.485 50.9884 133.508 51.1571 133.531 51.3249 133.612 51.9162 133.471 50.8676 133.556 51.5119 133.603 51.8701 133.65 52.2286 133.696 52.5874 133.819 53.5403 133.935 54.4935 134.044 55.447 134.743 60.7059 135.084 66.0061 135.067 71.3111 135.014 73.9978 139.187 73.9978 139.24 71.3111Z" fill="#211715" transform="matrix(1.00256 0 0 1 115.061 10)"/><path d="M22.4233 78.5894C22.905 86.0928 23.1667 93.6188 22.9685 101.137 22.9159 106.151 22.4799 111.153 21.6643 116.1 20.4738 122.148 19.8498 128.294 19.8001 134.458 19.7064 137.164 20.1803 139.859 21.1913 142.37 22.2453 144.745 23.8171 146.854 25.7916 148.543 31.4917 153.442 39.1908 154.469 46.3108 152.527 48.8991 151.821 47.8001 147.794 45.2013 148.502 39.7881 149.98 33.8262 149.522 29.259 146.017 27.3892 144.6 25.9059 142.736 24.9456 140.596 24.5549 139.662 24.2736 138.685 24.1074 137.686 24.0987 137.628 24.0787 137.48 24.0579 137.201 24.0344 136.905 24.0231 136.607 24.0118 136.31 23.984 135.591 23.9735 134.872 23.9744 134.153 24.0396 128.432 24.6196 122.729 25.7072 117.112 26.5335 112.245 27.0019 107.325 27.1088 102.39 27.3766 94.4561 27.1088 86.5075 26.601 78.5885 26.5749 77.4471 25.6558 76.528 24.5143 76.5018 23.366 76.5117 22.4376 77.4402 22.4276 78.5885Z" fill="#211715" transform="matrix(1.00256 0 0 1 115.061 10)"/><path d="M135.072 71.3111C136.04 83.5383 138.043 95.8011 142.201 107.377 143.772 111.749 145.853 115.946 146.996 120.462 147.45 122.254 147.767 124.079 147.942 125.919 148.072 127.062 148.064 128.216 147.919 129.357 147.454 131.748 146.432 133.996 144.936 135.918 141.275 140.939 134.905 143.195 128.9 141.597 126.308 140.878 125.201 144.901 127.789 145.622 134.131 147.365 140.923 145.688 145.725 141.193 149.811 137.47 152.634 131.923 152.152 126.311 151.814 122.311 150.927 118.377 149.517 114.618 148.787 112.671 147.939 110.769 147.184 108.83 145.522 104.539 144.137 100.145 143.036 95.6768 141.107 87.6724 139.839 79.5231 139.244 71.3111 139.217 70.1703 138.299 69.2519 137.158 69.2244 136.009 69.2334 135.08 70.1624 135.071 71.3111Z" fill="#211715" transform="matrix(1.00256 0 0 1 115.061 10)"/><path d="M50.9641 117.296C57.3729 123.985 65.5032 129.34 74.9316 130.124 76.0801 130.114 77.0088 129.186 77.0183 128.037 76.9956 126.894 76.0745 125.973 74.9316 125.95 66.6552 125.262 59.4987 120.173 53.9159 114.345 52.0535 112.402 49.1052 115.355 50.9598 117.296Z" fill="#211715" transform="matrix(1.00256 0 0 1 115.061 10)"/><path d="M163.495 262.593C168.463 244.308 167.877 210.756 165.564 186.854 165.375 183.765 164.939 180.696 164.26 177.676 162.855 172.665 160.487 167.412 157.043 164.538 155.29 162.653 149.238 158.691 146.995 157.473 138.648 152.938 131.068 148.919 122.659 144.992 122.628 144.999 122.599 145.012 122.572 145.028 113.674 150.221 96.3419 154.853 83.1853 154.803 68.468 154.763 52.8187 149.816 43.1807 144.389 31.5926 148.691 18.1951 154.027 10.55 159.627 6.6157 163.008 3.63955 168.148 2.59881 175.692 0.677307 196.74 4.25078 218.568 11.3542 238.7 13.5279 244.854 16.2006 251.064 20.9374 255.553 25.6742 260.041 32.9403 262.421 38.9099 259.785 44.3954 257.364 52.5952 250.565 55.9417 245.59 57.1512 243.793 58.4632 241.714 59.836 239.448 65.0076 240.54 73.1318 241.63 78.5024 242.201L78.6711 242.258C77.4539 253.581 77.0478 276.287 78.4685 276.601 94.3031 277.297 121.816 279.45 145.764 276.043 156.901 274.459 161.994 267.633 163.081 264.032 163.225 263.565 163.363 263.085 163.495 262.593Z" fill="#F4B3B3" transform="matrix(1.00256 0 0 1 115.061 10)"/><path d="M134.891 182.098C134.276 188.548 134.186 195.077 133.916 201.548 133.679 207.252 133.432 212.956 133.227 218.662 133.003 224.875 133.043 231.095 133.043 237.312 133.043 239.998 137.216 240.002 137.216 237.312 137.216 229.273 137.303 221.253 137.62 213.221 137.911 205.831 138.203 198.441 138.551 191.05 138.691 188.07 138.781 185.072 139.064 182.1 139.056 180.951 138.127 180.021 136.978 180.013 135.835 180.037 134.915 180.957 134.891 182.1Z" fill="#211715" transform="matrix(1.00256 0 0 1 115.061 10)"/><path d="M79.7527 238.476C94.3404 238.751 108.929 238.998 123.518 239.214 128.075 239.276 132.632 239.334 137.189 239.388 139.875 239.418 139.877 235.245 137.189 235.214 122.271 235.044 107.354 234.82 92.4381 234.542 88.2102 234.465 83.9817 234.386 79.7527 234.306 77.0661 234.254 77.0661 238.428 79.7527 238.479Z" fill="#211715" transform="matrix(1.00256 0 0 1 115.061 10)"/><path d="M163.477 186.854C165.163 203.489 165.623 220.225 164.854 236.928 164.592 244.296 163.724 251.629 162.26 258.855 161.936 260.333 161.574 261.807 161.137 263.257 161.078 263.454 161.013 263.649 160.95 263.845 160.916 263.953 160.869 264.058 160.829 264.165 160.722 264.452 161.057 263.692 160.839 264.135 160.609 264.602 160.377 265.061 160.104 265.505 159.529 266.477 158.821 267.363 158.001 268.139 157 269.155 155.876 270.044 154.656 270.784 151.296 272.71 147.559 273.887 143.701 274.236 138.988 274.841 134.249 275.231 129.505 275.478 120.226 275.961 110.924 275.894 101.641 275.584 97.5201 275.447 93.4006 275.258 89.2819 275.052 87.448 274.961 85.6146 274.868 83.7818 274.772 82.9558 274.73 82.1298 274.688 81.3038 274.648 80.4922 274.504 79.6656 274.465 78.8441 274.532L78.7189 274.527C79.1512 274.577 79.5537 274.772 79.8614 275.08 79.7344 274.954 79.8257 274.967 80.1274 275.432 80.064 275.335 79.8901 275.161 80.1379 275.497 80.3631 275.804 80.1866 275.656 80.1544 275.488 80.1335 275.374 80.0979 275.263 80.0735 275.151 80.0257 274.931 79.9318 274.021 80.0048 274.821 79.9718 274.459 79.9231 274.099 79.8927 273.737 79.7188 271.698 79.6823 269.644 79.6631 267.598 79.6127 262.12 79.7779 256.643 80.0787 251.171 80.2187 248.613 80.3917 246.056 80.6378 243.506 80.7361 242.493 80.8465 241.482 80.9786 240.474 80.8969 241.097 81.0082 240.279 81.0265 240.157 81.0525 239.978 81.0815 239.799 81.1134 239.621 81.1777 239.227 81.2473 238.838 81.3308 238.444 81.3873 238.177 81.4481 237.91 81.5229 237.647 81.6255 237.29 81.8281 236.851 81.5603 237.442 82.1057 236.442 81.7775 235.19 80.8117 234.587 79.8151 234.015 78.5444 234.348 77.9564 235.335 77.3917 236.754 77.037 238.248 76.9035 239.769 76.5722 242.186 76.3488 244.617 76.1705 247.05 75.7497 252.789 75.535 258.556 75.4924 264.313 75.4741 266.716 75.4845 269.122 75.588 271.524 75.5879 273.175 75.7568 274.821 76.0923 276.438 76.2391 277.226 76.6944 277.924 77.3573 278.375 78.0237 278.669 78.7528 278.793 79.4788 278.735 80.3587 278.775 81.2383 278.817 82.1176 278.862 86.0024 279.055 89.8862 279.264 93.7683 279.443 103.032 279.868 112.308 280.13 121.581 279.937 126.545 279.833 131.509 279.601 136.458 279.178 141.189 278.774 146.173 278.483 150.732 277.082 156.672 275.256 162.577 271.203 164.882 265.211 165.859 262.357 166.562 259.416 166.982 256.429 167.657 252.598 168.126 248.73 168.476 244.857 170.041 227.583 169.549 210.057 168.175 192.786 168.018 190.809 167.844 188.832 167.653 186.856 167.623 185.716 166.706 184.799 165.566 184.769 164.417 184.777 163.488 185.707 163.48 186.856Z" fill="#211715" transform="matrix(1.00256 0 0 1 115.061 10)"/><path d="M78.5024 240.115C72.3985 239.523 66.3283 238.623 60.3151 237.419 59.2074 237.141 58.0765 237.783 57.7476 238.876 57.4533 239.986 58.1016 241.128 59.2057 241.443 65.586 242.716 72.0264 243.665 78.5024 244.289 79.6519 244.282 80.582 243.352 80.5891 242.202 80.5643 241.06 79.6444 240.14 78.5024 240.115Z" fill="#211715" transform="matrix(1.00256 0 0 1 115.061 10)"/><path d="M30.4875 261.015C30.3501 264.892 32.449 268.681 34.3818 271.924 36.3146 275.168 38.7561 278.455 42.8399 278.74 44.6603 278.875 46.4404 278.158 47.6584 276.799 48.6018 275.712 49.1695 274.395 50.5868 273.842 53.502 272.702 56.9973 273.508 60.0464 273.221 64.4281 272.832 68.6408 271.344 72.2936 268.893 74.5038 267.393 72.418 263.776 70.1878 265.289 67.4316 267.172 64.2899 268.417 60.9915 268.933 58.0458 269.391 55.0575 268.916 52.1048 269.273 50.6001 269.397 49.1392 269.841 47.8201 270.575 46.409 271.431 45.7048 272.669 44.6779 273.892 42.8095 276.118 40.0098 272.963 39.0073 271.451 37.8949 269.765 36.9069 268.001 36.0512 266.172 35.169 264.594 34.6911 262.822 34.66 261.014 34.7548 258.328 30.5814 258.331 30.4866 261.014Z" fill="#211715" transform="matrix(1.00256 0 0 1 115.061 10)"/><path d="M43.0633 147.105C53.2889 152.313 64.4138 155.523 75.8419 156.563 86.8127 157.596 97.947 155.894 108.46 152.738 111.156 151.939 113.809 151.005 116.411 149.939 117.609 149.443 118.799 148.928 119.968 148.365 120.496 148.11 121.02 147.846 121.54 147.572 121.768 147.45 121.996 147.327 122.222 147.202 122.37 147.12 122.516 147.037 122.662 146.953 121.832 146.968 121.716 147.027 122.314 147.132 124.923 147.79 126.03 143.766 123.424 143.107 122.213 142.784 120.922 143.008 119.891 143.721 118.935 144.243 117.957 144.728 116.966 145.183 114.872 146.129 112.73 146.967 110.55 147.693 105.49 149.402 100.302 150.707 95.0351 151.595 83.9915 153.407 72.6862 152.803 61.8984 149.825 56.1098 148.327 50.5007 146.207 45.1692 143.5 42.7869 142.268 40.6741 145.868 43.0625 147.103Z" fill="#211715" transform="matrix(1.00256 0 0 1 115.061 10)"/><path d="M101.967 124.514C102.164 128.041 102.604 131.55 103.286 135.016 103.805 137.852 105.818 140.185 108.547 141.115 109.366 141.441 108.026 140.854 108.606 141.132 108.824 141.237 109.046 141.336 109.266 141.44 109.961 141.764 110.653 142.09 111.343 142.418 113.217 143.304 115.091 144.191 116.965 145.078 118.244 145.687 119.513 146.333 120.815 146.889 121.815 147.431 123.064 147.103 123.67 146.14 124.243 145.144 123.91 143.872 122.921 143.285 120.16 142.108 117.474 140.718 114.761 139.435 113.444 138.812 112.133 138.176 110.807 137.572 110.12 137.307 109.453 136.992 108.813 136.628 108.162 136.237 107.7 135.597 107.534 134.856 107.22 133.563 106.984 132.253 106.828 130.932 106.478 128.807 106.249 126.664 106.141 124.514 106.002 121.842 101.828 121.826 101.967 124.514Z" fill="#211715" transform="matrix(1.00256 0 0 1 115.061 10)"/><path d="M31.117 193.413 37.2901 196.517C37.7805 196.788 38.3551 196.863 38.8986 196.728 40.0098 196.422 40.6628 195.274 40.3572 194.162 40.2126 193.637 39.8679 193.188 39.3968 192.913L33.2237 189.809C32.7336 189.539 32.1593 189.464 31.6161 189.599 30.5048 189.904 29.8514 191.053 30.1568 192.164 30.3013 192.69 30.6459 193.138 31.117 193.413Z" fill="#211715" transform="matrix(1.00256 0 0 1 115.061 10)"/><path d="M64.2181 126.024C64.0929 127.916 63.8947 129.786 63.5825 131.656 63.4476 132.798 63.2388 133.931 62.9574 135.047 62.8637 135.394 62.712 135.724 62.5088 136.021 62.137 136.477 61.6639 136.839 61.1272 137.079 60.7396 137.264 60.3378 137.416 59.9256 137.535 56.1582 138.731 52.3865 139.917 48.6227 141.128 46.9872 141.655 45.3344 142.154 43.7233 142.752 42.6319 143.083 41.9911 144.211 42.2652 145.318 42.5795 146.424 43.7223 147.073 44.8327 146.777 48.5609 145.392 52.4117 144.291 56.2017 143.089 59.7804 141.959 64.7615 141.163 66.5022 137.39 67.0553 135.986 67.4125 134.513 67.5638 133.011 67.9429 130.689 68.235 128.372 68.3906 126.023 68.3906 124.87 67.4564 123.936 66.3039 123.936 65.1515 123.936 64.2172 124.87 64.2172 126.023Z" fill="#211715" transform="matrix(1.00256 0 0 1 115.061 10)"/><path d="M112.29 142.633C122.357 146.93 132.13 151.832 141.764 157.014 145.422 158.914 148.956 161.043 152.345 163.389 153.639 164.319 154.871 165.331 156.034 166.42 157.667 168.021 158.99 169.91 159.936 171.993 162.259 176.72 163.02 181.665 163.474 186.854 163.502 187.994 164.42 188.912 165.56 188.941 166.709 188.933 167.639 188.003 167.647 186.854 167.212 181.834 166.569 177.037 164.636 172.349 163.019 168.135 160.327 164.418 156.827 161.568 153.687 159.096 150.339 156.9 146.821 155.003 141.912 152.342 136.983 149.714 131.994 147.207 126.211 144.301 120.344 141.575 114.393 139.03 113.392 138.487 112.143 138.815 111.537 139.778 110.964 140.774 111.298 142.046 112.286 142.633Z" fill="#211715" transform="matrix(1.00256 0 0 1 115.061 10)"/><path d="M4.60812 176.247C5.52105 169.859 8.03118 163.673 13.6018 160.051 19.7749 156.04 26.6489 153.096 33.455 150.355 37.6058 148.684 41.7948 147.111 45.9934 145.565 47.085 145.234 47.7257 144.106 47.4506 142.999 47.1363 141.894 45.9939 141.245 44.884 141.542 37.0493 144.425 29.2198 147.39 21.6599 150.943 18.2871 152.485 15.0173 154.243 11.8707 156.206 9.0304 157.961 6.61377 160.323 4.79419 163.122 2.54555 166.779 1.1106 170.877 0.586884 175.137 0.319721 176.243 0.957483 177.367 2.04409 177.704 3.15327 178 4.29461 177.351 4.60812 176.247Z" fill="#211715" transform="matrix(1.00256 0 0 1 115.061 10)"/><path d="M52.4578 178.481C54.2115 175.771 58.9622 169.755 59.2848 168.016 59.6344 165.745 59.6491 163.434 59.3283 161.159 58.3188 153.631 57.7633 143.348 56.4417 138.871 55.376 134.888 53.7826 131.066 51.704 127.506 49.6985 124.021 47.4673 120.67 45.0248 117.476 44.2205 116.428 43.7313 115.173 43.6146 113.858 43.5197 112.578 44.2787 111.388 45.4796 110.934 46.7851 110.516 48.1929 110.547 49.4791 111.021 53.4029 113.147 56.0061 116.291 58.9562 120.873 60.9855 124.027 67.3577 132.43 69.2105 135.692L69.3949 135.979C70.9547 135.081 72.4745 134.414 74.6116 133.449 75.5593 133.021 78.4372 132.057 79.4806 132.199 82.6493 132.645 85.0992 135.205 85.4059 138.391 87.4057 137.881 89.0742 139.055 90.2297 140.433 91.2565 141.658 92.1981 143.582 91.1913 147.416L91.1913 147.416C93.3002 148.384 94.67 150.473 94.7178 152.793 94.8656 154.834 95.0543 156.631 93.9257 158.9 92.7546 161.253 89.7289 159.83 88.8655 158.737L88.5333 158.578C89.4028 161.649 90.6844 167.053 89.1341 170.984 88.5768 172.399 83.927 175.923 81.9533 177.157 79.3449 181.215 76.8009 189.523 75.8993 191.97" fill="#FFFFFF" transform="matrix(1.00256 0 0 1 115.061 10)"/><path d="M67.2395 139.918C68.8509 138.713 70.5698 137.658 72.3745 136.767 73.2848 136.323 74.2099 135.909 75.1333 135.493 75.2863 135.424 75.9358 135.145 75.4811 135.329 75.6158 135.275 75.7506 135.222 75.8871 135.173 76.3036 135.021 76.7226 134.878 77.1469 134.748 78.7493 134.258 79.4327 134.001 80.9047 134.846 82.209 135.598 83.0981 136.905 83.3183 138.394 83.3486 139.57 84.3261 140.498 85.5016 140.468 85.6561 140.464 85.8098 140.443 85.9598 140.406 86.648 140.299 87.3469 140.516 87.8543 140.993 88.3885 141.373 88.8185 141.881 89.1046 142.471 89.122 142.501 89.2889 142.834 89.2211 142.682 89.1533 142.53 89.3454 143.053 89.3437 143.046 89.4224 143.308 89.4785 143.577 89.5115 143.849 89.5759 144.866 89.4632 145.886 89.1785 146.863 88.529 149.472 92.5528 150.582 93.2023 147.973 93.8579 145.344 94.0361 142.408 92.5068 140.033 90.8209 137.403 88.0021 135.724 84.846 136.381L87.4874 138.393C87.2666 135.963 86.1062 133.714 84.253 132.126 82.4474 130.548 80.0221 129.876 77.6617 130.3 75.5466 130.804 73.4993 131.559 71.5633 132.549 69.2939 133.577 67.1376 134.839 65.1293 136.313 64.1634 136.917 63.8353 138.169 64.3807 139.169 64.9678 140.157 66.2396 140.49 67.236 139.917Z" fill="#211715" transform="matrix(1.00256 0 0 1 115.061 10)"/><path d="M74.1856 145.466C75.1828 144.959 76.1975 144.488 77.2191 144.032 77.8138 143.766 78.4111 143.505 79.0111 143.249L79.8396 142.896C80.3909 142.662 79.451 143.058 80.0014 142.828L80.4109 142.654C82.2533 141.886 84.1069 141.144 85.9624 140.406 87.0551 140.076 87.6965 138.947 87.4196 137.839 87.1033 136.736 85.9625 136.088 84.8529 136.382 80.5552 138.091 76.2044 139.764 72.0797 141.86 71.0913 142.447 70.7577 143.719 71.3311 144.715 71.9294 145.688 73.187 146.017 74.1856 145.464Z" fill="#211715" transform="matrix(1.00256 0 0 1 115.061 10)"/><path d="M92.2494 145.618C89.7036 144.497 87.0501 145.128 84.4947 145.904 83.3027 146.267 82.1081 146.607 80.9499 147.07 79.6397 147.592 78.2946 148.234 77.0374 148.762 75.9508 149.1 75.313 150.223 75.5802 151.329 75.8921 152.436 77.0363 153.086 78.1468 152.787 80.3921 151.769 82.6908 150.873 85.0329 150.103 86.0542 149.768 87.0923 149.488 88.143 149.261 88.2795 149.235 88.4177 149.21 88.5551 149.188 88.3421 149.213 88.3612 149.21 88.6125 149.182 88.8733 149.162 89.1402 149.141 89.4063 149.144 89.5263 149.144 90.2523 149.269 89.7888 149.158 89.8845 149.181 90.5827 149.419 90.141 149.221 91.141 149.766 92.3921 149.438 92.9963 148.473 93.5687 147.476 93.2353 146.205 92.2477 145.618Z" fill="#211715" transform="matrix(1.00256 0 0 1 115.061 10)"/><path d="M87.3918 160.216C88.2695 161.195 89.4388 161.865 90.727 162.129 92.5625 162.596 94.4932 161.854 95.5429 160.277 96.5276 158.599 97.0048 156.672 96.9167 154.728 96.969 153.017 96.694 151.311 96.1063 149.703 95.3592 147.917 93.9872 146.465 92.2468 145.617 91.2516 145.035 89.9733 145.37 89.3915 146.365 88.8098 147.36 89.1449 148.639 90.1401 149.221 90.5235 149.409 90.8912 149.627 91.24 149.874 90.9661 149.681 91.1182 149.778 91.2895 149.934 91.4368 150.067 91.577 150.209 91.7095 150.357 91.7747 150.431 91.839 150.506 91.8999 150.583L91.7521 150.395C91.8686 150.451 92.0068 150.779 92.0703 150.89 92.1866 151.051 92.2769 151.23 92.3381 151.419L92.2433 151.198C92.2798 151.292 92.3138 151.387 92.3459 151.483 92.4536 151.83 92.5407 152.183 92.6068 152.54 92.6433 152.776 92.641 152.751 92.5998 152.466 92.612 152.576 92.6215 152.685 92.6294 152.796 92.6494 153.032 92.665 153.27 92.6807 153.507 92.7402 154.317 92.7457 155.131 92.6972 155.941 92.6699 156.184 92.6723 156.175 92.7041 155.915 92.6902 156.002 92.6746 156.095 92.6572 156.183 92.6155 156.397 92.5656 156.609 92.5076 156.819 92.4363 157.074 92.3494 157.321 92.2572 157.569 92.3807 157.239 92.1259 157.846 92.1216 157.853 92.0774 157.943 92.0287 158.03 91.9755 158.114 91.8457 158.304 91.8718 158.272 92.0538 158.019 91.9968 158.083 91.9359 158.143 91.8712 158.199 92.121 158.017 92.179 157.968 92.0451 158.053 91.6425 158.319 92.4259 157.986 92.0651 158.065 91.5034 158.188 92.4181 158.097 92.0468 158.091L91.6921 158.091C91.3339 158.091 92.2138 158.208 91.6521 158.07 91.513 158.036 91.38 157.987 91.2434 157.946 90.7618 157.802 91.5843 158.136 91.2434 157.946 91.1869 157.915 90.534 157.599 90.5531 157.533 90.8313 157.754 90.8893 157.798 90.727 157.666 90.6774 157.624 90.6279 157.579 90.5809 157.534 90.4954 157.452 90.4147 157.365 90.3392 157.273 89.5229 156.462 88.2046 156.462 87.3883 157.273 86.6041 158.101 86.6041 159.397 87.3883 160.224Z" fill="#211715" transform="matrix(1.00256 0 0 1 115.061 10)"/><path d="M86.0076 157.338C86.7191 159.59 87.2611 161.893 87.6291 164.226 87.8496 165.706 87.8467 167.211 87.6204 168.69 87.5549 169.039 87.4704 169.384 87.3674 169.724 87.3248 169.866 87.2857 170.016 87.2292 170.153 87.2526 170.097 87.3265 169.892 87.2292 170.153 87.1965 170.219 87.1562 170.281 87.1092 170.337 86.9353 170.572 87.3344 170.076 87.117 170.323 86.9327 170.534 86.7417 170.739 86.544 170.937 85.6514 171.812 84.7032 172.628 83.7053 173.381 82.7349 174.129 81.6342 174.741 80.6952 175.519 79.6701 176.368 79.065 177.994 78.5146 179.18 77.8408 180.632 77.2339 182.118 76.6592 183.615 75.6689 186.193 74.8403 188.824 73.8934 191.418 73.5981 192.528 74.2463 193.67 75.3506 193.985 76.4586 194.266 77.5914 193.623 77.9173 192.527 79.6753 187.713 81.0021 182.584 83.7609 178.213L83.0123 178.961C84.8684 177.772 86.6339 176.446 88.2942 174.996 89.9566 173.558 91.1635 172.158 91.6182 169.953 92.5746 165.306 91.2704 160.686 90.0358 156.231 89.3202 153.646 85.2929 154.744 86.0119 157.34Z" fill="#211715" transform="matrix(1.00256 0 0 1 115.061 10)"/><path d="M71.0112 134.642C69.0031 131.382 66.8331 128.225 64.5094 125.183 62.0349 121.735 59.8195 118.04 57.119 114.767 54.2828 111.328 49.7616 107.203 44.924 108.922 42.027 109.953 40.9749 113.009 41.8635 115.81 42.6582 118.317 44.5971 120.371 46.0812 122.496 49.8204 127.615 52.6444 133.342 54.428 139.425 55.1305 142.015 59.1579 140.916 58.4519 138.316 57.0211 133.263 54.87 128.442 52.0648 124.003 50.825 121.99 49.4669 120.057 48.0784 118.145 47.4054 117.218 44.651 114.227 45.9786 113.023 46.488 112.743 47.0767 112.641 47.6506 112.735 48.5335 112.842 49.3634 113.213 50.0312 113.801 51.6778 114.97 53.1427 116.377 54.3785 117.974 56.6877 120.832 58.5953 124.069 60.7403 127.058 63.1237 130.175 65.3494 133.409 67.409 136.748 68.7462 139.077 72.3536 136.977 71.012 134.642Z" fill="#211715" transform="matrix(1.00256 0 0 1 115.061 10)"/><path d="M54.2593 179.534C55.6105 177.465 57.1242 175.503 58.5336 173.473 59.8691 171.551 61.1837 169.708 61.4793 167.341 61.9053 163.935 61.3098 160.584 60.9429 157.205 60.5864 153.927 60.2916 150.642 59.9247 147.364 59.6879 144.312 59.1958 141.286 58.4536 138.316 57.7137 135.74 53.6846 136.838 54.4298 139.425 55.0211 141.709 55.4259 144.037 55.64 146.386 56.0087 149.528 56.2939 152.679 56.6225 155.827 56.9512 158.974 57.5528 162.162 57.4607 165.345 57.4399 166.053 57.3772 166.76 57.2729 167.461 57.2469 167.574 57.2147 167.686 57.1764 167.796 57.3111 167.274 57.1468 167.848 57.0599 168.017 56.5377 168.979 55.9569 169.908 55.3209 170.799 53.7977 173.032 52.1309 175.168 50.6537 177.431 49.1765 179.694 52.7934 181.778 54.2567 179.537Z" fill="#211715" transform="matrix(1.00256 0 0 1 115.061 10)"/><path d="M0.51211 175.692C-1.32331 196.161 1.88237 216.961 8.36157 236.395 11.2534 245.071 14.8382 254.567 22.9145 259.716 26.5677 262.137 30.9345 263.246 35.3 262.861 39.3664 262.38 42.8999 260.232 46.1604 257.873 49.5548 255.475 52.6675 252.7 55.4392 249.603 57.4452 247.168 59.2456 244.571 60.822 241.839 64.4929 235.876 67.8942 229.745 71.1746 223.56 74.2299 217.799 77.1974 211.98 79.8979 206.042 80.843 203.964 81.7768 201.869 82.5567 199.722 82.9914 198.524 83.5609 197.082 83.1966 195.798 82.6749 193.958 80.6369 192.637 79.1823 191.601 76.8289 189.974 74.3935 188.469 71.8858 187.092 65.9683 183.735 59.8986 180.653 53.8464 177.549 52.6587 176.941 51.4727 176.329 50.2885 175.715 49.2892 175.165 48.0341 175.494 47.4332 176.463 44.2823 181.209 41.434 186.164 38.6282 191.119 35.8225 196.074 33.0394 201.068 30.5849 206.207 30.0354 207.207 30.3644 208.461 31.3335 209.062 32.3301 209.633 33.6008 209.3 34.1888 208.313 36.6467 203.175 39.4264 198.181 42.2321 193.226 45.0379 188.27 47.8836 183.314 51.0371 178.57L48.1818 179.319C53.6299 182.154 59.1222 184.904 64.5337 187.809 67.3925 189.343 70.2365 190.908 73.0153 192.582 74.1282 193.253 75.2315 193.941 76.307 194.669 76.7574 194.974 77.2014 195.288 77.639 195.612 77.726 195.677 77.8129 195.744 77.8999 195.811 77.8486 195.772 77.5625 195.541 77.8486 195.776 78.0347 195.927 78.2207 196.078 78.4016 196.236 78.6728 196.476 78.9137 196.739 79.1719 196.991 79.5319 197.339 78.9711 196.702 79.1406 196.942 79.3588 197.253 79.2615 197.274 79.1589 196.875 79.2797 197.346 79.1589 196.173 79.1293 196.779 79.1597 196.072 79.1536 196.6 79.0571 196.978 78.8842 197.614 78.6781 198.241 78.4398 198.856 78.2894 199.262 78.1312 199.665 77.9694 200.066 77.89 200.264 77.8098 200.461 77.7286 200.658 77.6869 200.76 77.6417 200.863 77.6008 200.965 77.5842 201.013 77.5648 201.059 77.5425 201.104 75.275 206.4 72.6936 211.564 70.0591 216.684 66.9047 222.815 63.6173 228.88 60.1473 234.836 58.6136 237.465 57.0425 240.074 55.3931 242.632 53.6572 245.333 51.5878 247.803 49.2339 249.985 46.4621 252.619 43.3931 254.921 40.0889 256.845 37.0229 258.716 33.3196 259.237 29.8563 258.284 21.4226 255.992 16.9657 247.812 14.1113 240.195 7.29214 222 3.59694 202.323 4.24121 182.867 4.3212 180.472 4.4693 178.08 4.6855 175.692 4.67698 174.543 3.74771 173.614 2.59881 173.605 1.45644 173.629 0.53609 174.55 0.51211 175.692Z" fill="#211715" transform="matrix(1.00256 0 0 1 115.061 10)"/><path d="M84.8834 85.6102C85.1152 86.3145 85.3355 87.0234 85.5442 87.7369 85.7904 88.4777 85.9816 89.2356 86.1163 90.0045L86.0415 89.4498C86.058 89.5983 86.058 89.7481 86.0415 89.8967L86.1154 89.3419C86.1035 89.4101 86.0864 89.4773 86.0641 89.5428L86.2745 89.0446C86.2477 89.1055 86.215 89.1638 86.1771 89.2185L86.5032 88.7959C86.4752 88.8317 86.4434 88.8644 86.4084 88.8933L86.8309 88.5673C86.6776 88.678 86.5126 88.7716 86.3388 88.8464L86.837 88.6359C86.6696 88.705 86.4944 88.7534 86.3154 88.7803L86.8701 88.7055C86.5402 88.7168 86.2099 88.6985 85.8832 88.6507 84.7308 88.6507 83.7965 89.585 83.7965 90.7374 83.8232 91.8787 84.742 92.7975 85.8832 92.8241 86.1551 92.8615 86.4288 92.8841 86.7031 92.8919 87.4061 92.8681 88.0926 92.6729 88.7029 92.3233 89.4318 91.9372 89.9574 91.254 90.1436 90.4505 90.2653 89.7832 90.2356 89.0972 90.0566 88.4429 89.7367 87.1118 89.3437 85.798 88.9124 84.4999 88.7573 83.9809 88.417 83.5369 87.956 83.2523 86.9616 82.6698 85.6833 83.0038 85.1008 83.9983 84.8159 84.4848 84.74 85.0659 84.8903 85.6094Z" fill="#211715" transform="matrix(1.00256 0 0 1 115.061 10)"/><path d="M61.1289 75.2611C60.5733 77.5921 61.3715 82.8201 65.7301 82.9879 71.4503 82.5837 71.3442 76.2062 69.2244 73.3431 67.489 70.9981 62.7861 70.28 61.1289 75.2611Z" fill="#211715" transform="matrix(1.00256 0 0 1 115.061 10)"/><path d="M106.957 72.2997C107.807 74.5403 107.689 79.8275 103.388 80.5543 97.6635 80.89 96.948 74.5551 98.6808 71.4398 100.101 68.8906 104.672 67.5733 106.957 72.2997Z" fill="#211715" transform="matrix(1.00256 0 0 1 115.061 10)"/><path d="M81.6012 108.797C82.397 108.292 83.2372 107.861 84.1113 107.508 84.7029 107.286 85.3078 107.102 85.9224 106.955 86.3797 106.84 86.8446 106.758 87.3135 106.708 88.5436 106.607 89.7783 106.572 91.0122 106.602 91.5234 106.618 92.0346 106.647 92.5433 106.695 92.6746 106.708 92.8041 106.722 92.9354 106.737 92.6908 106.701 92.6867 106.701 92.9232 106.737 93.1319 106.775 93.3397 106.811 93.5466 106.857 94.6578 107.164 95.8069 106.511 96.1133 105.4 96.4196 104.289 95.7672 103.14 94.6561 102.833 92.1569 102.334 89.5935 102.242 87.0648 102.559 84.3753 102.848 81.7876 103.749 79.5006 105.193 78.5054 105.775 78.17 107.053 78.7515 108.048 79.333 109.043 80.6112 109.378 81.6064 108.797Z" fill="#211715" transform="matrix(1.00256 0 0 1 115.061 10)"/></g></g></g></g></svg>